<svg width="246" height="39" viewBox="0 0 246 39" fill="none" xmlns="http://www.w3.org/2000/svg">
<path d="M54.6002 15.9358C53.8514 15.9358 53.1858 15.8422 52.6034 15.655C52.021 15.4678 51.475 15.1506 50.9654 14.7034C50.6846 14.4538 50.5442 14.1782 50.5442 13.8766C50.5442 13.6374 50.6326 13.4294 50.8094 13.2526C50.9862 13.0654 51.1994 12.9718 51.449 12.9718C51.6466 12.9718 51.8234 13.0342 51.9794 13.159C52.3954 13.5022 52.801 13.7518 53.1962 13.9078C53.5914 14.0638 54.0594 14.1418 54.6002 14.1418C55.1826 14.1418 55.6818 14.0118 56.0978 13.7518C56.5242 13.4918 56.7374 13.1694 56.7374 12.7846C56.7374 12.3166 56.5294 11.9526 56.1134 11.6926C55.6974 11.4222 55.037 11.2194 54.1322 11.0842C51.8546 10.7514 50.7158 9.69059 50.7158 7.90179C50.7158 7.24659 50.8874 6.67979 51.2306 6.2014C51.5738 5.7126 52.0418 5.3434 52.6346 5.0938C53.2274 4.8338 53.8878 4.7038 54.6158 4.7038C55.271 4.7038 55.8846 4.8026 56.4566 5.0002C57.039 5.1978 57.5226 5.4578 57.9074 5.7802C58.209 6.0194 58.3598 6.295 58.3598 6.607C58.3598 6.84619 58.2714 7.05939 58.0946 7.24659C57.9178 7.42339 57.7098 7.51179 57.4706 7.51179C57.3146 7.51179 57.1742 7.46499 57.0494 7.37139C56.779 7.15299 56.3994 6.95539 55.9106 6.77859C55.4322 6.59139 55.0006 6.49779 54.6158 6.49779C53.9606 6.49779 53.451 6.62259 53.087 6.87219C52.7334 7.11139 52.5566 7.42859 52.5566 7.82379C52.5566 8.27099 52.7386 8.60899 53.1026 8.83779C53.477 9.06659 54.0594 9.25379 54.8498 9.39939C55.7442 9.55539 56.4566 9.75819 56.987 10.0078C57.5278 10.247 57.9334 10.5798 58.2038 11.0062C58.4742 11.4222 58.6094 11.9786 58.6094 12.6754C58.6094 13.3306 58.4222 13.9078 58.0478 14.407C57.6838 14.8958 57.195 15.2754 56.5814 15.5458C55.9678 15.8058 55.3074 15.9358 54.6002 15.9358ZM69.1187 14.563C69.1707 14.6982 69.1967 14.823 69.1967 14.9374C69.1967 15.2078 69.1083 15.4314 68.9315 15.6082C68.7547 15.7746 68.5519 15.8578 68.3231 15.8578C68.136 15.8578 67.9644 15.8006 67.8084 15.6862C67.6628 15.5718 67.5484 15.4158 67.4652 15.2182L66.654 13.3306H62.0052L61.194 15.2338C61.1212 15.4314 61.0068 15.5874 60.8508 15.7018C60.7052 15.8058 60.544 15.8578 60.3672 15.8578C60.0968 15.8578 59.8888 15.785 59.7432 15.6394C59.608 15.4938 59.5404 15.2962 59.5404 15.0466C59.5404 14.953 59.556 14.8542 59.5872 14.7502L63.4716 5.4214C63.5548 5.2134 63.6796 5.0522 63.846 4.9378C64.0124 4.8234 64.1996 4.7766 64.4076 4.7974C64.5948 4.7974 64.7664 4.8546 64.9224 4.969C65.0888 5.073 65.2084 5.2238 65.2812 5.4214L69.1187 14.563ZM62.7696 11.5366H65.8896L64.314 7.88619L62.7696 11.5366ZM78.9572 4.8598C79.2068 4.8598 79.4096 4.943 79.5656 5.1094C79.7216 5.2758 79.7996 5.4838 79.7996 5.7334V14.8282C79.7996 15.0986 79.706 15.3274 79.5188 15.5146C79.342 15.6914 79.1184 15.7798 78.848 15.7798C78.7024 15.7798 78.5568 15.759 78.4112 15.7174C78.276 15.6654 78.1772 15.5978 78.1148 15.5146L72.3896 8.24499V14.9062C72.3896 15.1558 72.3064 15.3638 72.14 15.5302C71.984 15.6966 71.776 15.7798 71.516 15.7798C71.2664 15.7798 71.0636 15.6966 70.9076 15.5302C70.7516 15.3638 70.6736 15.1558 70.6736 14.9062V5.81139C70.6736 5.541 70.762 5.3174 70.9388 5.1406C71.126 4.9534 71.3548 4.8598 71.6252 4.8598C71.7812 4.8598 71.932 4.891 72.0776 4.9534C72.2336 5.0158 72.348 5.099 72.4208 5.203L78.0992 12.4414V5.7334C78.0992 5.4838 78.1772 5.2758 78.3332 5.1094C78.4996 4.943 78.7076 4.8598 78.9572 4.8598ZM86.9811 4.8598C87.9587 4.8598 88.7959 5.1042 89.4927 5.593C90.1999 6.07139 90.7355 6.72659 91.0995 7.55859C91.4739 8.38019 91.6611 9.30059 91.6611 10.3198C91.6611 11.339 91.4739 12.2646 91.0995 13.0966C90.7355 13.9182 90.1999 14.5734 89.4927 15.0622C88.7959 15.5406 87.9587 15.7798 86.9811 15.7798H83.2527C82.9823 15.7798 82.7535 15.6914 82.5663 15.5146C82.3895 15.3274 82.3011 15.0986 82.3011 14.8282V5.81139C82.3011 5.541 82.3895 5.3174 82.5663 5.1406C82.7535 4.9534 82.9823 4.8598 83.2527 4.8598H86.9811ZM86.8251 13.9858C87.7611 13.9858 88.4631 13.6426 88.9311 12.9562C89.3991 12.2594 89.6331 11.3806 89.6331 10.3198C89.6331 9.25899 89.3939 8.38539 88.9155 7.69899C88.4475 7.00219 87.7507 6.65379 86.8251 6.65379H84.2511V13.9858H86.8251ZM102.645 4.8598C103.176 4.8598 103.68 5.021 104.159 5.3434C104.637 5.6554 105.022 6.08179 105.313 6.62259C105.604 7.15299 105.75 7.73539 105.75 8.36979C105.75 8.99379 105.604 9.57619 105.313 10.117C105.022 10.6578 104.637 11.0894 104.159 11.4118C103.68 11.7238 103.176 11.8798 102.645 11.8798H99.9309V14.8282C99.9309 15.109 99.8477 15.3378 99.6813 15.5146C99.5149 15.6914 99.2965 15.7798 99.0261 15.7798C98.7661 15.7798 98.5529 15.6914 98.3865 15.5146C98.2201 15.3274 98.1369 15.0986 98.1369 14.8282V5.81139C98.1369 5.541 98.2253 5.3174 98.4021 5.1406C98.5893 4.9534 98.8181 4.8598 99.0885 4.8598H102.645ZM102.645 10.1014C102.843 10.1014 103.035 10.0182 103.223 9.85179C103.42 9.68539 103.576 9.47219 103.691 9.21219C103.815 8.94179 103.878 8.66099 103.878 8.36979C103.878 8.07859 103.815 7.80299 103.691 7.54299C103.576 7.27259 103.42 7.05939 103.223 6.90339C103.035 6.73699 102.843 6.65379 102.645 6.65379H99.9309V10.1014H102.645ZM117.739 10.3198C117.739 11.3494 117.51 12.2958 117.052 13.159C116.595 14.0118 115.961 14.6878 115.149 15.187C114.349 15.6862 113.444 15.9358 112.435 15.9358C111.426 15.9358 110.516 15.6862 109.705 15.187C108.904 14.6878 108.275 14.0118 107.817 13.159C107.37 12.2958 107.147 11.3494 107.147 10.3198C107.147 9.29019 107.37 8.34899 107.817 7.49619C108.275 6.63299 108.904 5.9518 109.705 5.4526C110.516 4.9534 111.426 4.7038 112.435 4.7038C113.444 4.7038 114.349 4.9534 115.149 5.4526C115.961 5.9518 116.595 6.63299 117.052 7.49619C117.51 8.34899 117.739 9.29019 117.739 10.3198ZM115.711 10.3198C115.711 9.62299 115.571 8.99379 115.29 8.43219C115.009 7.86019 114.619 7.40779 114.12 7.07499C113.621 6.74219 113.059 6.57579 112.435 6.57579C111.801 6.57579 111.234 6.74219 110.735 7.07499C110.246 7.39739 109.861 7.84459 109.58 8.41659C109.31 8.98859 109.175 9.62299 109.175 10.3198C109.175 11.0166 109.31 11.651 109.58 12.223C109.861 12.795 110.246 13.2474 110.735 13.5802C111.234 13.9026 111.801 14.0638 112.435 14.0638C113.059 14.0638 113.621 13.8974 114.12 13.5646C114.619 13.2318 115.009 12.7846 115.29 12.223C115.571 11.651 115.711 11.0166 115.711 10.3198ZM121.636 14.8282C121.636 15.0986 121.537 15.3274 121.339 15.5146C121.142 15.6914 120.913 15.7798 120.653 15.7798C120.372 15.7798 120.138 15.6914 119.951 15.5146C119.774 15.3274 119.686 15.0986 119.686 14.8282V5.81139C119.686 5.541 119.779 5.3174 119.966 5.1406C120.154 4.9534 120.393 4.8598 120.684 4.8598C120.944 4.8598 121.168 4.9534 121.355 5.1406C121.542 5.3174 121.636 5.541 121.636 5.81139V14.8282ZM132.421 4.8598C132.671 4.8598 132.874 4.943 133.03 5.1094C133.186 5.2758 133.264 5.4838 133.264 5.7334V14.8282C133.264 15.0986 133.17 15.3274 132.983 15.5146C132.806 15.6914 132.582 15.7798 132.312 15.7798C132.166 15.7798 132.021 15.759 131.875 15.7174C131.74 15.6654 131.641 15.5978 131.579 15.5146L125.854 8.24499V14.9062C125.854 15.1558 125.77 15.3638 125.604 15.5302C125.448 15.6966 125.24 15.7798 124.98 15.7798C124.73 15.7798 124.528 15.6966 124.372 15.5302C124.216 15.3638 124.138 15.1558 124.138 14.9062V5.81139C124.138 5.541 124.226 5.3174 124.403 5.1406C124.59 4.9534 124.819 4.8598 125.089 4.8598C125.245 4.8598 125.396 4.891 125.542 4.9534C125.698 5.0158 125.812 5.099 125.885 5.203L131.563 12.4414V5.7334C131.563 5.4838 131.641 5.2758 131.797 5.1094C131.964 4.943 132.172 4.8598 132.421 4.8598ZM142.941 4.8598C143.222 4.8598 143.451 4.943 143.628 5.1094C143.804 5.2758 143.893 5.4942 143.893 5.7646C143.893 6.03499 143.804 6.25339 143.628 6.41979C143.451 6.57579 143.222 6.65379 142.941 6.65379H140.492V14.8282C140.492 15.0986 140.393 15.3274 140.196 15.5146C139.998 15.6914 139.754 15.7798 139.462 15.7798C139.171 15.7798 138.932 15.6914 138.745 15.5146C138.558 15.3274 138.464 15.0986 138.464 14.8282V6.65379H136.015C135.734 6.65379 135.505 6.57059 135.328 6.4042C135.152 6.23779 135.063 6.0194 135.063 5.749C135.063 5.489 135.152 5.2758 135.328 5.1094C135.516 4.943 135.744 4.8598 136.015 4.8598H142.941ZM157.859 5.3902C158.181 5.5566 158.342 5.8218 158.342 6.1858C158.342 6.40419 158.264 6.61739 158.108 6.82539C157.942 7.04379 157.729 7.15299 157.469 7.15299C157.292 7.15299 157.115 7.10619 156.938 7.01259C156.429 6.77339 155.877 6.65379 155.285 6.65379C154.557 6.65379 153.922 6.80979 153.381 7.12179C152.841 7.42339 152.425 7.85499 152.133 8.41659C151.842 8.96779 151.697 9.60219 151.697 10.3198C151.697 11.547 152.024 12.4778 152.679 13.1122C153.345 13.7466 154.213 14.0638 155.285 14.0638C155.919 14.0638 156.47 13.9442 156.938 13.705C157.125 13.6218 157.292 13.5802 157.437 13.5802C157.708 13.5802 157.937 13.6946 158.124 13.9234C158.28 14.121 158.358 14.3342 158.358 14.563C158.358 14.7294 158.316 14.8802 158.233 15.0154C158.15 15.1506 158.03 15.2546 157.874 15.3274C157.063 15.733 156.2 15.9358 155.285 15.9358C154.265 15.9358 153.329 15.7226 152.477 15.2962C151.624 14.8594 150.943 14.2198 150.433 13.3774C149.923 12.535 149.669 11.5158 149.669 10.3198C149.669 9.25899 149.908 8.30739 150.386 7.46499C150.875 6.62259 151.546 5.9674 152.399 5.4994C153.251 5.021 154.213 4.7818 155.285 4.7818C156.21 4.7818 157.068 4.9846 157.859 5.3902ZM168.045 5.7802C168.045 5.98819 167.988 6.18059 167.873 6.35739L164.613 11.0218V14.8282C164.613 15.0986 164.524 15.3274 164.348 15.5146C164.171 15.6914 163.958 15.7798 163.708 15.7798C163.448 15.7798 163.224 15.6914 163.037 15.5146C162.86 15.3274 162.772 15.0986 162.772 14.8282V10.8034L159.527 6.49779C159.34 6.2482 159.246 6.0038 159.246 5.7646C159.246 5.4942 159.35 5.2706 159.558 5.0938C159.777 4.9066 160.006 4.813 160.245 4.813C160.536 4.813 160.791 4.9586 161.009 5.2498L163.755 9.04059L166.329 5.281C166.547 4.969 166.807 4.813 167.109 4.813C167.358 4.813 167.577 4.9066 167.764 5.0938C167.951 5.281 168.045 5.5098 168.045 5.7802ZM176.152 9.72699C176.703 9.94539 177.15 10.2782 177.494 10.7254C177.847 11.1726 178.024 11.7498 178.024 12.457C178.024 13.6946 177.67 14.5578 176.963 15.0466C176.256 15.5354 175.414 15.7798 174.436 15.7798H170.552C170.281 15.7798 170.052 15.6914 169.865 15.5146C169.688 15.3274 169.6 15.0986 169.6 14.8282V5.81139C169.6 5.541 169.688 5.3174 169.865 5.1406C170.052 4.9534 170.281 4.8598 170.552 4.8598H174.483C176.459 4.8598 177.447 5.7854 177.447 7.63659C177.447 8.10459 177.332 8.52059 177.104 8.88459C176.885 9.23819 176.568 9.51899 176.152 9.72699ZM175.419 7.97979C175.419 7.55339 175.31 7.23619 175.091 7.02819C174.883 6.80979 174.587 6.70059 174.202 6.70059H171.628V9.13419H174.249C174.561 9.13419 174.831 9.03019 175.06 8.82219C175.299 8.61419 175.419 8.33339 175.419 7.97979ZM174.436 13.9858C174.925 13.9858 175.304 13.8558 175.575 13.5958C175.856 13.3358 175.996 12.9562 175.996 12.457C175.996 11.8434 175.835 11.443 175.512 11.2558C175.19 11.0686 174.795 10.975 174.327 10.975H171.628V13.9858H174.436ZM186.156 13.9858C186.426 13.9858 186.65 14.0794 186.827 14.2666C187.014 14.4434 187.108 14.6514 187.108 14.8906C187.108 15.1506 187.014 15.3638 186.827 15.5302C186.65 15.6966 186.426 15.7798 186.156 15.7798H180.93C180.66 15.7798 180.431 15.6914 180.244 15.5146C180.067 15.3274 179.978 15.0986 179.978 14.8282V5.81139C179.978 5.541 180.067 5.3174 180.244 5.1406C180.431 4.9534 180.66 4.8598 180.93 4.8598H186.156C186.426 4.8598 186.65 4.9482 186.827 5.125C187.014 5.2914 187.108 5.5098 187.108 5.7802C187.108 6.04019 187.019 6.25339 186.842 6.41979C186.666 6.57579 186.437 6.65379 186.156 6.65379H181.928V9.30579H185.454C185.724 9.30579 185.948 9.39419 186.125 9.57099C186.312 9.73739 186.406 9.95579 186.406 10.2262C186.406 10.4862 186.317 10.6994 186.14 10.8658C185.964 11.0218 185.735 11.0998 185.454 11.0998H181.928V13.9858H186.156ZM197.626 14.251C197.761 14.3342 197.865 14.4434 197.938 14.5786C198.021 14.7138 198.063 14.8542 198.063 14.9998C198.063 15.187 198 15.3586 197.876 15.5146C197.72 15.7018 197.48 15.7954 197.158 15.7954C196.908 15.7954 196.68 15.7382 196.472 15.6238C195.723 15.1974 195.348 14.329 195.348 13.0186C195.348 12.6442 195.224 12.3478 194.974 12.1294C194.735 11.911 194.386 11.8018 193.929 11.8018H191.012V14.8282C191.012 15.109 190.934 15.3378 190.778 15.5146C190.632 15.6914 190.434 15.7798 190.185 15.7798C189.883 15.7798 189.618 15.6914 189.389 15.5146C189.171 15.3274 189.062 15.0986 189.062 14.8282V5.81139C189.062 5.541 189.15 5.3174 189.327 5.1406C189.514 4.9534 189.743 4.8598 190.013 4.8598H194.506C195.047 4.8598 195.556 5.0054 196.035 5.2966C196.513 5.5878 196.893 5.98819 197.174 6.49779C197.465 7.00739 197.61 7.57939 197.61 8.21379C197.61 8.73379 197.47 9.24339 197.189 9.74259C196.908 10.2314 196.544 10.6214 196.097 10.9126C196.752 11.3702 197.111 11.9838 197.174 12.7534C197.205 12.9198 197.22 13.081 197.22 13.237C197.262 13.5594 197.304 13.7934 197.345 13.939C197.387 14.0742 197.48 14.1782 197.626 14.251ZM194.428 10.195C194.615 10.195 194.797 10.1066 194.974 9.92979C195.151 9.75299 195.296 9.51899 195.411 9.22779C195.525 8.92619 195.582 8.60379 195.582 8.26059C195.582 7.96939 195.525 7.70419 195.411 7.46499C195.296 7.21539 195.151 7.01779 194.974 6.87219C194.797 6.72659 194.615 6.65379 194.428 6.65379H191.012V10.195H194.428Z" fill="white"/>
<path d="M57.3458 26.8836C57.4622 26.8836 57.5538 26.9211 57.6203 26.996C57.6952 27.0625 57.7326 27.154 57.7326 27.2705V35.2327C57.7243 35.3492 57.6827 35.4449 57.6078 35.5198C57.533 35.5863 57.4414 35.6196 57.3333 35.6196C57.2251 35.6196 57.1336 35.5822 57.0587 35.5073C56.9838 35.4324 56.9464 35.3409 56.9464 35.2327V31.5137H51.8795V35.2327C51.8712 35.3409 51.8296 35.4324 51.7547 35.5073C51.6798 35.5822 51.5883 35.6196 51.4802 35.6196C51.3637 35.6196 51.268 35.5863 51.1931 35.5198C51.1266 35.4449 51.0933 35.3492 51.0933 35.2327V27.2705C51.0933 27.154 51.1307 27.0625 51.2056 26.996C51.2805 26.9211 51.3762 26.8836 51.4926 26.8836C51.6008 26.8836 51.6923 26.9211 51.7672 26.996C51.8421 27.0708 51.8795 27.1624 51.8795 27.2705V30.7899H56.9464V27.2705C56.9464 27.1624 56.9838 27.0708 57.0587 26.996C57.1419 26.9211 57.2376 26.8836 57.3458 26.8836ZM66.3779 26.8836C66.486 26.8836 66.5734 26.9211 66.6399 26.996C66.7148 27.0625 66.7523 27.1499 66.7523 27.258V32.4248C66.7523 33.0321 66.6067 33.5896 66.3155 34.0971C66.0243 34.6046 65.6291 35.0039 65.1299 35.2951C64.6307 35.5863 64.0815 35.7319 63.4825 35.7319C62.8751 35.7319 62.3219 35.5863 61.8227 35.2951C61.3235 35.0039 60.9283 34.6046 60.6371 34.0971C60.3459 33.5896 60.2003 33.0321 60.2003 32.4248V27.258C60.2003 27.1499 60.2335 27.0625 60.3001 26.996C60.375 26.9211 60.4748 26.8836 60.5996 26.8836C60.6995 26.8836 60.7868 26.9211 60.8617 26.996C60.9366 27.0625 60.974 27.1499 60.974 27.258V32.4248C60.974 32.8907 61.0863 33.3192 61.311 33.7102C61.5356 34.1012 61.8393 34.4132 62.222 34.6462C62.6131 34.8708 63.0332 34.9831 63.4825 34.9831C63.9401 34.9831 64.3603 34.8708 64.743 34.6462C65.134 34.4132 65.4419 34.1012 65.6665 33.7102C65.8995 33.3192 66.0159 32.8907 66.0159 32.4248V27.258C66.0159 27.1499 66.0492 27.0625 66.1158 26.996C66.1823 26.9211 66.2697 26.8836 66.3779 26.8836ZM76.8347 26.8836C76.9346 26.8836 77.0178 26.9211 77.0843 26.996C77.1592 27.0625 77.1966 27.1499 77.1966 27.258V35.2452C77.1966 35.3534 77.1592 35.4449 77.0843 35.5198C77.0094 35.5863 76.9179 35.6196 76.8098 35.6196C76.6933 35.6196 76.5976 35.5863 76.5227 35.5198C76.4478 35.4449 76.4104 35.3534 76.4104 35.2452V28.3812L73.4776 32.8241C73.3944 32.9323 73.2987 32.9822 73.1906 32.9739H73.1656C73.0658 32.9739 72.9742 32.924 72.891 32.8241L69.9582 28.3563V35.2452C69.9582 35.3534 69.9208 35.4449 69.8459 35.5198C69.7794 35.5863 69.692 35.6196 69.5838 35.6196C69.4757 35.6196 69.3883 35.5863 69.3218 35.5198C69.2552 35.4449 69.2219 35.3534 69.2219 35.2452V27.258C69.2219 27.1582 69.2552 27.0708 69.3218 26.996C69.3966 26.9211 69.4882 26.8836 69.5963 26.8836C69.6546 26.8836 69.717 26.9003 69.7835 26.9336C69.8501 26.9585 69.9 26.996 69.9333 27.0459L73.203 31.9505L76.4978 27.0459C76.5893 26.9211 76.7016 26.867 76.8347 26.8836ZM86.1841 35.1204C86.2007 35.187 86.209 35.2369 86.209 35.2702C86.209 35.3783 86.1716 35.4657 86.0967 35.5323C86.0218 35.5988 85.9345 35.6321 85.8346 35.6321C85.7514 35.6321 85.6766 35.6113 85.61 35.5697C85.5518 35.5198 85.506 35.4574 85.4727 35.3825L84.5367 33.0987H80.4807L79.5572 35.3825C79.4906 35.5489 79.3783 35.6321 79.2202 35.6321C79.1038 35.6321 79.0164 35.603 78.9582 35.5447C78.8999 35.4865 78.8666 35.4075 78.8583 35.3076V35.2702C78.8583 35.2203 78.8625 35.1828 78.8708 35.1579L82.1655 27.0958C82.2321 26.9294 82.3569 26.8462 82.5399 26.8462C82.6231 26.8462 82.6938 26.8712 82.7521 26.9211C82.8186 26.9627 82.8686 27.0209 82.9018 27.0958L86.1841 35.1204ZM80.7678 32.3624H84.2372L82.49 28.0942L80.7678 32.3624ZM94.2644 26.8836C94.3725 26.8836 94.4557 26.9169 94.514 26.9835C94.5805 27.05 94.6138 27.1332 94.6138 27.2331V35.2203C94.6138 35.3451 94.5764 35.4449 94.5015 35.5198C94.4266 35.5863 94.3351 35.6196 94.2269 35.6196C94.1687 35.6196 94.1105 35.6071 94.0522 35.5822C94.0023 35.5572 93.9607 35.5281 93.9274 35.4948L88.5735 28.2814V35.2827C88.5735 35.3742 88.5361 35.4532 88.4612 35.5198C88.3946 35.5863 88.3156 35.6196 88.2241 35.6196C88.1242 35.6196 88.041 35.5863 87.9745 35.5198C87.9079 35.4532 87.8746 35.3742 87.8746 35.2827V27.258C87.8746 27.1416 87.9079 27.05 87.9745 26.9835C88.0493 26.9169 88.1367 26.8836 88.2365 26.8836C88.3697 26.8836 88.4695 26.9294 88.5361 27.0209L93.9149 34.2718V27.2331C93.9149 27.1332 93.9482 27.05 94.0148 26.9835C94.0813 26.9169 94.1645 26.8836 94.2644 26.8836ZM101.403 35.2327C101.394 35.3409 101.353 35.4324 101.278 35.5073C101.203 35.5822 101.111 35.6196 101.003 35.6196C100.887 35.6196 100.791 35.5863 100.716 35.5198C100.65 35.4449 100.616 35.3492 100.616 35.2327V27.2705C100.616 27.154 100.654 27.0625 100.729 26.996C100.804 26.9211 100.899 26.8836 101.016 26.8836C101.124 26.8836 101.215 26.9211 101.29 26.996C101.365 27.0708 101.403 27.1624 101.403 27.2705V35.2327ZM110.251 26.8836C110.359 26.8836 110.442 26.9169 110.501 26.9835C110.567 27.05 110.6 27.1332 110.6 27.2331V35.2203C110.6 35.3451 110.563 35.4449 110.488 35.5198C110.413 35.5863 110.322 35.6196 110.214 35.6196C110.155 35.6196 110.097 35.6071 110.039 35.5822C109.989 35.5572 109.947 35.5281 109.914 35.4948L104.56 28.2814V35.2827C104.56 35.3742 104.523 35.4532 104.448 35.5198C104.381 35.5863 104.302 35.6196 104.211 35.6196C104.111 35.6196 104.028 35.5863 103.961 35.5198C103.894 35.4532 103.861 35.3742 103.861 35.2827V27.258C103.861 27.1416 103.894 27.05 103.961 26.9835C104.036 26.9169 104.123 26.8836 104.223 26.8836C104.356 26.8836 104.456 26.9294 104.523 27.0209L109.902 34.2718V27.2331C109.902 27.1332 109.935 27.05 110.001 26.9835C110.068 26.9169 110.151 26.8836 110.251 26.8836ZM115.424 35.7444C114.825 35.7444 114.293 35.6446 113.827 35.4449C113.369 35.2452 112.924 34.9332 112.492 34.5089C112.392 34.4257 112.342 34.3259 112.342 34.2094C112.342 34.1096 112.379 34.018 112.454 33.9348C112.537 33.8516 112.629 33.81 112.729 33.81C112.829 33.81 112.92 33.8516 113.003 33.9348C113.652 34.6503 114.463 35.0081 115.437 35.0081C116.036 35.0081 116.531 34.8667 116.922 34.5838C117.321 34.3009 117.521 33.9307 117.521 33.4731C117.521 33.1153 117.421 32.82 117.222 32.587C117.03 32.3457 116.776 32.1502 116.46 32.0004C116.144 31.8507 115.741 31.6968 115.25 31.5387C114.717 31.3806 114.268 31.2059 113.902 31.0145C113.544 30.8232 113.253 30.5694 113.028 30.2532C112.804 29.9288 112.691 29.5211 112.691 29.0302C112.691 28.5892 112.808 28.1982 113.041 27.8571C113.282 27.516 113.615 27.2497 114.039 27.0584C114.472 26.8587 114.967 26.7588 115.524 26.7588C116.032 26.7588 116.506 26.8462 116.947 27.0209C117.396 27.1873 117.754 27.4286 118.02 27.7448C118.145 27.8862 118.207 28.0068 118.207 28.1067C118.207 28.1982 118.166 28.2856 118.083 28.3688C117.999 28.4436 117.908 28.4811 117.808 28.4811C117.725 28.4811 117.654 28.452 117.596 28.3937C117.371 28.1275 117.072 27.9112 116.697 27.7448C116.323 27.5784 115.932 27.4952 115.524 27.4952C114.917 27.4952 114.422 27.6324 114.039 27.907C113.656 28.1732 113.465 28.5393 113.465 29.0052C113.465 29.4878 113.648 29.858 114.014 30.116C114.38 30.3739 114.904 30.611 115.587 30.8273C116.177 31.002 116.66 31.1809 117.034 31.364C117.409 31.547 117.712 31.8091 117.945 32.1502C118.187 32.483 118.307 32.924 118.307 33.4731C118.307 33.8974 118.182 34.2843 117.933 34.6337C117.692 34.9748 117.35 35.2452 116.91 35.4449C116.477 35.6446 115.982 35.7444 115.424 35.7444ZM123.53 26.8836C123.988 26.8836 124.4 26.9918 124.766 27.2081C125.132 27.4161 125.415 27.7115 125.615 28.0942C125.823 28.4686 125.927 28.8929 125.927 29.3672C125.927 29.8414 125.823 30.274 125.615 30.6651C125.415 31.0561 125.132 31.364 124.766 31.5886C124.4 31.8132 123.988 31.9256 123.53 31.9256H120.947V35.2452C120.947 35.3534 120.91 35.4449 120.835 35.5198C120.768 35.5863 120.681 35.6196 120.573 35.6196C120.465 35.6196 120.373 35.5863 120.298 35.5198C120.232 35.4449 120.198 35.3534 120.198 35.2452V27.258C120.198 27.1499 120.232 27.0625 120.298 26.996C120.373 26.9211 120.465 26.8836 120.573 26.8836H123.53ZM123.53 31.2017C124.013 31.2017 124.404 31.027 124.704 30.6776C125.003 30.3281 125.153 29.8913 125.153 29.3672C125.153 28.8513 125.003 28.4312 124.704 28.1067C124.404 27.7822 124.013 27.62 123.53 27.62H120.947V31.2017H123.53ZM128.544 35.2327C128.535 35.3409 128.494 35.4324 128.419 35.5073C128.344 35.5822 128.252 35.6196 128.144 35.6196C128.028 35.6196 127.932 35.5863 127.857 35.5198C127.791 35.4449 127.757 35.3492 127.757 35.2327V27.2705C127.757 27.154 127.795 27.0625 127.87 26.996C127.945 26.9211 128.04 26.8836 128.157 26.8836C128.265 26.8836 128.356 26.9211 128.431 26.996C128.506 27.0708 128.544 27.1624 128.544 27.2705V35.2327ZM137.38 34.9457C137.504 35.0289 137.567 35.1329 137.567 35.2577C137.567 35.2993 137.55 35.3534 137.517 35.4199C137.484 35.4782 137.438 35.5239 137.38 35.5572C137.321 35.5905 137.259 35.6071 137.192 35.6071C137.109 35.6071 137.038 35.5905 136.98 35.5572C136.747 35.4241 136.56 35.2078 136.419 34.9083C136.277 34.6087 136.206 34.1304 136.206 33.4731C136.206 32.8907 136.044 32.483 135.72 32.25C135.395 32.0088 135.008 31.8881 134.559 31.8881H131.788V35.2452C131.788 35.3534 131.755 35.4449 131.689 35.5198C131.622 35.5863 131.535 35.6196 131.427 35.6196C131.31 35.6196 131.21 35.5863 131.127 35.5198C131.044 35.4449 131.002 35.3534 131.002 35.2452V27.258C131.002 27.1499 131.036 27.0625 131.102 26.996C131.177 26.9211 131.268 26.8836 131.377 26.8836H134.746C135.22 26.8836 135.645 26.9876 136.019 27.1956C136.394 27.3953 136.685 27.674 136.893 28.0318C137.109 28.3896 137.217 28.7931 137.217 29.2424C137.217 29.7748 137.076 30.2449 136.793 30.6526C136.518 31.052 136.156 31.3265 135.707 31.4763C136.073 31.6177 136.373 31.859 136.606 32.2001C136.839 32.5329 136.959 32.9406 136.968 33.4232C136.976 33.939 137.009 34.3009 137.068 34.5089C137.134 34.7169 137.238 34.8625 137.38 34.9457ZM134.784 31.2017C135.075 31.1768 135.345 31.0811 135.595 30.9147C135.844 30.7483 136.044 30.5236 136.194 30.2408C136.344 29.9579 136.419 29.6334 136.419 29.2673C136.419 28.7931 136.256 28.402 135.932 28.0942C135.616 27.778 135.2 27.62 134.684 27.62H131.788V31.2017H134.784ZM144.442 34.8833C144.55 34.8833 144.638 34.9207 144.704 34.9956C144.779 35.0705 144.817 35.1579 144.817 35.2577C144.817 35.3659 144.779 35.4532 144.704 35.5198C144.638 35.5863 144.55 35.6196 144.442 35.6196H139.862C139.754 35.6196 139.662 35.5863 139.588 35.5198C139.521 35.4449 139.488 35.3534 139.488 35.2452V27.258C139.488 27.1499 139.521 27.0625 139.588 26.996C139.662 26.9211 139.754 26.8836 139.862 26.8836H144.442C144.55 26.8836 144.638 26.9211 144.704 26.996C144.779 27.0625 144.817 27.1499 144.817 27.258C144.817 27.3662 144.779 27.4536 144.704 27.5201C144.638 27.5867 144.55 27.62 144.442 27.62H140.274V30.7524H143.881C143.989 30.7524 144.076 30.7899 144.143 30.8648C144.218 30.9313 144.255 31.0187 144.255 31.1268C144.255 31.235 144.218 31.3224 144.143 31.3889C144.076 31.4555 143.989 31.4888 143.881 31.4888H140.274V34.8833H144.442ZM150.262 26.8836C151.061 26.8836 151.731 27.0833 152.272 27.4827C152.821 27.8737 153.228 28.402 153.495 29.0676C153.769 29.7249 153.907 30.4529 153.907 31.2516C153.907 32.0753 153.769 32.8158 153.495 33.4731C153.228 34.1304 152.821 34.6545 152.272 35.0455C151.731 35.4283 151.061 35.6196 150.262 35.6196H147.08C146.972 35.6196 146.88 35.5863 146.805 35.5198C146.739 35.4449 146.706 35.3534 146.706 35.2452V27.258C146.706 27.1499 146.739 27.0625 146.805 26.996C146.88 26.9211 146.972 26.8836 147.08 26.8836H150.262ZM150.138 34.8833C151.136 34.8833 151.881 34.5505 152.371 33.8849C152.862 33.211 153.108 32.3332 153.108 31.2516C153.108 30.5777 153.004 29.9704 152.796 29.4296C152.588 28.8804 152.259 28.4436 151.81 28.1192C151.369 27.7864 150.811 27.62 150.138 27.62H147.492V34.8833H150.138ZM165.852 35.1204C165.869 35.187 165.877 35.2369 165.877 35.2702C165.877 35.3783 165.84 35.4657 165.765 35.5323C165.69 35.5988 165.603 35.6321 165.503 35.6321C165.42 35.6321 165.345 35.6113 165.278 35.5697C165.22 35.5198 165.174 35.4574 165.141 35.3825L164.205 33.0987H160.149L159.225 35.3825C159.159 35.5489 159.046 35.6321 158.888 35.6321C158.772 35.6321 158.685 35.603 158.626 35.5447C158.568 35.4865 158.535 35.4075 158.526 35.3076V35.2702C158.526 35.2203 158.531 35.1828 158.539 35.1579L161.834 27.0958C161.9 26.9294 162.025 26.8462 162.208 26.8462C162.291 26.8462 162.362 26.8712 162.42 26.9211C162.487 26.9627 162.537 27.0209 162.57 27.0958L165.852 35.1204ZM160.436 32.3624H163.905L162.158 28.0942L160.436 32.3624ZM168.329 35.2327C168.321 35.3409 168.279 35.4324 168.204 35.5073C168.129 35.5822 168.038 35.6196 167.93 35.6196C167.813 35.6196 167.717 35.5863 167.643 35.5198C167.576 35.4449 167.543 35.3492 167.543 35.2327V27.2705C167.543 27.154 167.58 27.0625 167.655 26.996C167.73 26.9211 167.826 26.8836 167.942 26.8836C168.05 26.8836 168.142 26.9211 168.217 26.996C168.292 27.0708 168.329 27.1624 168.329 27.2705V35.2327ZM170.064 37.242C169.964 37.242 169.881 37.2046 169.814 37.1297C169.748 37.0631 169.714 36.9799 169.714 36.8801C169.714 36.8135 169.731 36.7511 169.764 36.6929L175.193 25.9476C175.251 25.8395 175.309 25.7646 175.368 25.723C175.434 25.6731 175.513 25.6481 175.605 25.6481C175.688 25.6481 175.763 25.6814 175.829 25.748C175.896 25.8062 175.929 25.8852 175.929 25.9851C175.929 26.06 175.913 26.1348 175.879 26.2097L170.451 36.9675C170.392 37.0673 170.334 37.138 170.276 37.1796C170.218 37.2212 170.147 37.242 170.064 37.242ZM185.045 26.8836C185.145 26.8836 185.229 26.9211 185.295 26.996C185.37 27.0625 185.407 27.1499 185.407 27.258V35.2452C185.407 35.3534 185.37 35.4449 185.295 35.5198C185.22 35.5863 185.129 35.6196 185.021 35.6196C184.904 35.6196 184.808 35.5863 184.733 35.5198C184.659 35.4449 184.621 35.3534 184.621 35.2452V28.3812L181.688 32.8241C181.605 32.9323 181.509 32.9822 181.401 32.9739H181.376C181.277 32.9739 181.185 32.924 181.102 32.8241L178.169 28.3563V35.2452C178.169 35.3534 178.132 35.4449 178.057 35.5198C177.99 35.5863 177.903 35.6196 177.795 35.6196C177.686 35.6196 177.599 35.5863 177.533 35.5198C177.466 35.4449 177.433 35.3534 177.433 35.2452V27.258C177.433 27.1582 177.466 27.0708 177.533 26.996C177.607 26.9211 177.699 26.8836 177.807 26.8836C177.865 26.8836 177.928 26.9003 177.994 26.9336C178.061 26.9585 178.111 26.996 178.144 27.0459L181.414 31.9505L184.709 27.0459C184.8 26.9211 184.912 26.867 185.045 26.8836ZM192.71 34.8833C192.818 34.8833 192.906 34.9166 192.972 34.9831C193.047 35.0497 193.084 35.1371 193.084 35.2452C193.084 35.3534 193.047 35.4449 192.972 35.5198C192.906 35.5863 192.818 35.6196 192.71 35.6196H188.255C188.147 35.6196 188.055 35.5863 187.98 35.5198C187.914 35.4449 187.88 35.3534 187.88 35.2452V27.258C187.88 27.1499 187.918 27.0625 187.993 26.996C188.067 26.9211 188.163 26.8836 188.28 26.8836C188.388 26.8836 188.479 26.9211 188.554 26.996C188.629 27.0625 188.667 27.1499 188.667 27.258V34.8833H192.71ZM201.741 26.8836C202.54 26.8836 203.21 27.0833 203.751 27.4827C204.3 27.8737 204.707 28.402 204.974 29.0676C205.248 29.7249 205.385 30.4529 205.385 31.2516C205.385 32.0753 205.248 32.8158 204.974 33.4731C204.707 34.1304 204.3 34.6545 203.751 35.0455C203.21 35.4283 202.54 35.6196 201.741 35.6196H198.559C198.451 35.6196 198.359 35.5863 198.284 35.5198C198.218 35.4449 198.185 35.3534 198.185 35.2452V27.258C198.185 27.1499 198.218 27.0625 198.284 26.996C198.359 26.9211 198.451 26.8836 198.559 26.8836H201.741ZM201.617 34.8833C202.615 34.8833 203.36 34.5505 203.85 33.8849C204.341 33.211 204.587 32.3332 204.587 31.2516C204.587 30.5777 204.483 29.9704 204.275 29.4296C204.067 28.8804 203.738 28.4436 203.289 28.1192C202.848 27.7864 202.29 27.62 201.617 27.62H198.971V34.8833H201.617ZM213.657 34.9457C213.781 35.0289 213.844 35.1329 213.844 35.2577C213.844 35.2993 213.827 35.3534 213.794 35.4199C213.761 35.4782 213.715 35.5239 213.657 35.5572C213.598 35.5905 213.536 35.6071 213.469 35.6071C213.386 35.6071 213.315 35.5905 213.257 35.5572C213.024 35.4241 212.837 35.2078 212.696 34.9083C212.554 34.6087 212.483 34.1304 212.483 33.4731C212.483 32.8907 212.321 32.483 211.997 32.25C211.672 32.0088 211.285 31.8881 210.836 31.8881H208.066V35.2452C208.066 35.3534 208.032 35.4449 207.966 35.5198C207.899 35.5863 207.812 35.6196 207.704 35.6196C207.587 35.6196 207.487 35.5863 207.404 35.5198C207.321 35.4449 207.279 35.3534 207.279 35.2452V27.258C207.279 27.1499 207.313 27.0625 207.379 26.996C207.454 26.9211 207.546 26.8836 207.654 26.8836H211.023C211.498 26.8836 211.922 26.9876 212.296 27.1956C212.671 27.3953 212.962 27.674 213.17 28.0318C213.386 28.3896 213.494 28.7931 213.494 29.2424C213.494 29.7748 213.353 30.2449 213.07 30.6526C212.795 31.052 212.434 31.3265 211.984 31.4763C212.35 31.6177 212.65 31.859 212.883 32.2001C213.116 32.5329 213.236 32.9406 213.245 33.4232C213.253 33.939 213.286 34.3009 213.345 34.5089C213.411 34.7169 213.515 34.8625 213.657 34.9457ZM211.061 31.2017C211.352 31.1768 211.622 31.0811 211.872 30.9147C212.122 30.7483 212.321 30.5236 212.471 30.2408C212.621 29.9579 212.696 29.6334 212.696 29.2673C212.696 28.7931 212.533 28.402 212.209 28.0942C211.893 27.778 211.477 27.62 210.961 27.62H208.066V31.2017H211.061ZM216.551 35.2327C216.543 35.3409 216.501 35.4324 216.426 35.5073C216.351 35.5822 216.26 35.6196 216.152 35.6196C216.035 35.6196 215.939 35.5863 215.865 35.5198C215.798 35.4449 215.765 35.3492 215.765 35.2327V27.2705C215.765 27.154 215.802 27.0625 215.877 26.996C215.952 26.9211 216.048 26.8836 216.164 26.8836C216.272 26.8836 216.364 26.9211 216.439 26.996C216.514 27.0708 216.551 27.1624 216.551 27.2705V35.2327ZM225.324 26.8712C225.433 26.8712 225.524 26.9086 225.599 26.9835C225.674 27.05 225.711 27.1291 225.711 27.2206C225.711 27.2788 225.699 27.3412 225.674 27.4078L222.342 35.37C222.308 35.4449 222.259 35.5073 222.192 35.5572C222.125 35.5988 222.055 35.6196 221.98 35.6196C221.905 35.6196 221.834 35.5988 221.768 35.5572C221.709 35.5156 221.664 35.4574 221.63 35.3825L218.311 27.4328C218.286 27.3828 218.273 27.3163 218.273 27.2331C218.273 27.1249 218.311 27.0376 218.386 26.971C218.46 26.9044 218.544 26.8712 218.635 26.8712C218.81 26.8712 218.935 26.9627 219.01 27.1457L222.017 34.3342L224.975 27.1208C225.017 27.0459 225.066 26.9876 225.125 26.946C225.191 26.8961 225.258 26.8712 225.324 26.8712ZM232.389 34.8833C232.497 34.8833 232.584 34.9207 232.651 34.9956C232.726 35.0705 232.763 35.1579 232.763 35.2577C232.763 35.3659 232.726 35.4532 232.651 35.5198C232.584 35.5863 232.497 35.6196 232.389 35.6196H227.808C227.7 35.6196 227.609 35.5863 227.534 35.5198C227.467 35.4449 227.434 35.3534 227.434 35.2452V27.258C227.434 27.1499 227.467 27.0625 227.534 26.996C227.609 26.9211 227.7 26.8836 227.808 26.8836H232.389C232.497 26.8836 232.584 26.9211 232.651 26.996C232.726 27.0625 232.763 27.1499 232.763 27.258C232.763 27.3662 232.726 27.4536 232.651 27.5201C232.584 27.5867 232.497 27.62 232.389 27.62H228.22V30.7524H231.827C231.935 30.7524 232.023 30.7899 232.089 30.8648C232.164 30.9313 232.201 31.0187 232.201 31.1268C232.201 31.235 232.164 31.3224 232.089 31.3889C232.023 31.4555 231.935 31.4888 231.827 31.4888H228.22V34.8833H232.389ZM241.042 26.8836C241.15 26.8836 241.233 26.9169 241.291 26.9835C241.358 27.05 241.391 27.1332 241.391 27.2331V35.2203C241.391 35.3451 241.354 35.4449 241.279 35.5198C241.204 35.5863 241.112 35.6196 241.004 35.6196C240.946 35.6196 240.888 35.6071 240.83 35.5822C240.78 35.5572 240.738 35.5281 240.705 35.4948L235.351 28.2814V35.2827C235.351 35.3742 235.313 35.4532 235.238 35.5198C235.172 35.5863 235.093 35.6196 235.001 35.6196C234.902 35.6196 234.818 35.5863 234.752 35.5198C234.685 35.4532 234.652 35.3742 234.652 35.2827V27.258C234.652 27.1416 234.685 27.05 234.752 26.9835C234.827 26.9169 234.914 26.8836 235.014 26.8836C235.147 26.8836 235.247 26.9294 235.313 27.0209L240.692 34.2718V27.2331C240.692 27.1332 240.726 27.05 240.792 26.9835C240.859 26.9169 240.942 26.8836 241.042 26.8836Z" fill="white"/>
<mask id="mask0_3_3714" style="mask-type:luminance" maskUnits="userSpaceOnUse" x="1" y="0" width="34" height="39">
<path d="M1.07495 0.684814H34.3114V39H1.07495V0.684814Z" fill="white"/>
</mask>
<g mask="url(#mask0_3_3714)">
<path d="M17.1564 0.741382C16.8112 0.729212 16.4531 0.72729 16.0861 0.734336C16.3628 0.743303 16.6414 0.756754 16.9226 0.774689C18.9127 0.904073 20.8548 1.21344 22.7456 1.68551C24.1413 2.03395 25.4896 2.45925 26.7924 2.95629C28.0343 3.42964 29.2039 3.9523 30.3056 4.52172V10.1653C29.3359 9.50175 28.2547 8.94194 27.0505 8.48973C25.788 8.01703 24.4897 7.67563 23.1529 7.47515C22.5022 7.37779 21.8751 7.33359 21.273 7.34384C20.6575 7.35473 20.1047 7.42263 19.6173 7.55009C19.1222 7.67883 18.727 7.88188 18.4368 8.15858C18.1434 8.43785 17.9955 8.78053 17.9955 9.18469C17.9955 9.72337 18.2171 10.2057 18.6546 10.6271C19.0863 11.0435 19.6403 11.4111 20.311 11.7301C20.9669 12.0427 21.6791 12.3258 22.4439 12.5788C23.1888 12.826 23.91 13.0707 24.6076 13.3128C25.8213 13.7413 26.8744 14.1814 27.782 14.6329C28.6595 15.0704 29.3897 15.5623 29.9828 16.1106C30.5618 16.6461 30.9974 17.2635 31.2958 17.9662C31.5911 18.6605 31.7378 19.4913 31.7378 20.4642C31.7378 21.8272 31.4406 23.0346 30.8353 24.1062C30.214 25.2053 29.3647 26.1872 28.2636 27.059C27.1133 27.9692 25.7221 28.7807 24.0561 29.4942C22.2844 30.252 20.3225 30.9079 18.1434 31.4517C14.0435 32.4759 9.70398 33.0703 5.14349 33.1414C5.19025 33.1657 5.23701 33.19 5.28441 33.2137L6.00435 33.5641C4.37167 33.5609 2.72938 33.5064 1.07556 33.3995C8.74961 36.0608 17.7521 35.5292 25.2244 32.1345C21.0828 34.5114 16.2949 35.9142 11.4757 36.2312L16.5646 38.7119L17.1564 39.0002L17.7482 38.7119L29.0284 33.2137C32.2611 31.6374 34.3133 28.3522 34.3133 24.7506V3.8543C34.3133 3.8543 23.6295 0.510795 17.1564 0.741382Z" fill="white"/>
</g>
<mask id="mask1_3_3714" style="mask-type:luminance" maskUnits="userSpaceOnUse" x="0" y="0" width="24" height="33">
<path d="M0 0H23.9682V32.4666H0V0Z" fill="white"/>
</mask>
<g mask="url(#mask1_3_3714)">
<path d="M23.1535 20.7299C22.6929 20.4122 22.0915 20.1445 21.3395 19.9248C20.5677 19.7 19.6998 19.502 18.7275 19.3304C17.7231 19.153 16.7246 18.9384 15.7337 18.6854C14.0747 18.2844 12.5413 17.82 11.1559 17.2916C9.71218 16.7414 8.4542 16.0721 7.40439 15.2849C6.32384 14.4746 5.47835 13.5209 4.88587 12.4288C4.28379 11.3201 3.97954 10.016 3.97954 8.5306C3.97954 6.50272 4.6681 4.85979 6.00934 3.63448C7.13922 2.60196 8.54579 1.85384 10.1945 1.38113C9.6193 1.48234 9.04732 1.59122 8.48494 1.7046C6.74017 2.05624 5.19845 3.08427 4.22998 4.57988C4.22358 4.58949 4.21717 4.5991 4.21077 4.60871C2.80483 7.05036 2.48649 10.0365 3.27369 12.7875L3.27113 12.7836C3.11036 12.5697 2.98994 12.327 2.92332 12.0675C2.34622 9.83085 2.48585 7.44812 3.38642 5.33826C4.62902 2.77682 6.9919 0.909712 9.68463 0.0661496C7.05787 -0.09398 4.82694 1.09674 3.33646 2.90941C1.33036 3.43784 0 3.85417 0 3.85417V24.7504C0 27.839 1.51034 30.6945 3.97954 32.4392V24.0939C6.76515 24.8657 9.3458 25.3199 11.7439 25.4909C13.9844 25.6504 15.9713 25.5882 17.7359 25.3237C19.7581 25.0214 21.262 24.5865 22.3169 24.0209C23.3341 23.4752 23.8298 22.8001 23.8298 21.9802C23.8298 21.4575 23.6057 21.0425 23.1535 20.7299Z" fill="white"/>
<path d="M23.1535 20.7299C22.6929 20.4122 22.0915 20.1445 21.3395 19.9248C20.5677 19.7 19.6998 19.502 18.7275 19.3304C17.7231 19.153 16.7246 18.9384 15.7337 18.6854C14.0747 18.2844 12.5413 17.82 11.1559 17.2916C9.71218 16.7414 8.4542 16.0721 7.40439 15.2849C6.32384 14.4746 5.47835 13.5209 4.88587 12.4288C4.28379 11.3201 3.97954 10.016 3.97954 8.5306C3.97954 6.50272 4.6681 4.85979 6.00934 3.63448C7.13922 2.60196 8.54579 1.85384 10.1945 1.38113C9.6193 1.48234 9.04732 1.59122 8.48494 1.7046C6.74017 2.05624 5.19845 3.08427 4.22998 4.57988C4.22358 4.58949 4.21717 4.5991 4.21077 4.60871C2.80483 7.05036 2.48649 10.0365 3.27369 12.7875L3.27113 12.7836C3.11036 12.5697 2.98994 12.327 2.92332 12.0675C2.34622 9.83085 2.48585 7.44812 3.38642 5.33826C4.62902 2.77682 6.9919 0.909712 9.68463 0.0661496C7.05787 -0.09398 4.82694 1.09674 3.33646 2.90941C1.33036 3.43784 0 3.85417 0 3.85417V24.7504C0 27.839 1.51034 30.6945 3.97954 32.4392V24.0939C6.76515 24.8657 9.3458 25.3199 11.7439 25.4909C13.9844 25.6504 15.9713 25.5882 17.7359 25.3237C19.7581 25.0214 21.262 24.5865 22.3169 24.0209C23.3341 23.4752 23.8298 22.8001 23.8298 21.9802C23.8298 21.4575 23.6057 21.0425 23.1535 20.7299Z" fill="white"/>
</g>
</svg>
